<svg width="40" height="40" viewBox="0 0 40 40" fill="none" xmlns="http://www.w3.org/2000/svg">
<path d="M7.33333 6.66666C6.46 6.66666 6.45333 8.01333 7.33333 8H36.6667C37.048 8 37.3333 8.28533 37.3333 8.66666V26C37.3333 26.88 38.6667 26.88 38.6667 26V8.66666C38.6667 7.57066 37.7627 6.66666 36.6667 6.66666H7.33333ZM4.66667 9.33333C3.79467 9.33333 3.79467 10.6667 4.66667 10.6667H34C34.3813 10.6667 34.6667 10.952 34.6667 11.3333V28.6667C34.6667 29.5533 36.0133 29.5467 36 28.6667V11.3333C36 10.2373 35.096 9.33333 34 9.33333H4.66667ZM2 12C0.904 12 0 12.904 0 14V30C0 31.096 0.904 32 2 32H31.3333C32.4293 32 33.3333 31.096 33.3333 30V14C33.3333 12.904 32.4293 12 31.3333 12H2ZM2 13.3333H31.3333C31.7147 13.3333 32 13.6187 32 14V30C32 30.3813 31.7147 30.6667 31.3333 30.6667H2C1.61867 30.6667 1.33333 30.3813 1.33333 30V14C1.33333 13.6187 1.61867 13.3333 2 13.3333ZM3.33333 14.6667C2.96533 14.6667 2.66667 14.9653 2.66667 15.3333V18C2.66667 18.896 4 18.8747 4 18V16H6C6.896 16 6.87467 14.6667 6 14.6667H3.33333ZM16.6667 14.6667C12.624 14.6667 9.33333 17.9573 9.33333 22C9.33333 26.0427 12.624 29.3333 16.6667 29.3333C20.7093 29.3333 24 26.0427 24 22C24 17.9573 20.7093 14.6667 16.6667 14.6667ZM27.3333 14.6667C26.4587 14.6667 26.4373 16 27.3333 16H29.3333V18C29.3333 18.8747 30.6667 18.896 30.6667 18V15.3333C30.6667 14.9653 30.368 14.6667 30 14.6667H27.3333ZM16.6667 16C19.9867 16 22.6667 18.68 22.6667 22C22.6667 25.32 19.9867 28 16.6667 28C13.3467 28 10.6667 25.32 10.6667 22C10.6667 18.68 13.3467 16 16.6667 16ZM16.6667 17.3333C16.2973 17.3333 16 17.6307 16 18V18.792C15.2293 19.072 14.6667 19.8053 14.6667 20.6667C14.6667 21.76 15.5733 22.6667 16.6667 22.6667C17.04 22.6667 17.3333 22.9493 17.3333 23.3333C17.3333 23.7173 17.04 24 16.6667 24H15.3333C14.8827 23.9933 14.6667 24.3307 14.6667 24.6667C14.6667 25.0027 14.8827 25.34 15.3333 25.3333H16V26C16 26.3693 16.2973 26.6667 16.6667 26.6667C17.036 26.6667 17.3333 26.3693 17.3333 26V25.208C18.104 24.928 18.6667 24.1947 18.6667 23.3333C18.6667 22.24 17.76 21.3333 16.6667 21.3333C16.2933 21.3333 16 21.0507 16 20.6667C16 20.2827 16.2933 20 16.6667 20H18C18.4507 20.0067 18.6667 19.6693 18.6667 19.3333C18.6667 18.9973 18.4507 18.66 18 18.6667H17.3333V18C17.3333 17.6307 17.036 17.3333 16.6667 17.3333ZM3.33333 25.336C3 25.3333 2.66667 25.552 2.66667 26V28.6667C2.66667 29.0347 2.96533 29.3333 3.33333 29.3333H6C6.87467 29.3333 6.896 28 6 28H4V26C4 25.5627 3.66667 25.3387 3.33333 25.336ZM30 25.336C29.6667 25.3387 29.3333 25.5627 29.3333 26V28H27.3333C26.4373 28 26.4587 29.3333 27.3333 29.3333H30C30.368 29.3333 30.6667 29.0347 30.6667 28.6667V26C30.6667 25.552 30.3333 25.3333 30 25.336Z" fill="black"/>
</svg>
