<svg width="30" height="30" viewBox="0 0 30 30" fill="none" xmlns="http://www.w3.org/2000/svg">
<path d="M15 28.957C22.7083 28.957 28.957 22.7083 28.957 15C28.957 7.29174 22.7083 1.04297 15 1.04297C7.29174 1.04297 1.04297 7.29174 1.04297 15C1.04297 22.7083 7.29174 28.957 15 28.957Z" fill="#BC2A8D"/>
<path d="M22.5645 15.117C22.5645 16.1834 22.5645 17.2557 22.5645 18.3221C22.5645 20.1326 21.6856 21.3866 20.1095 22.201C19.4649 22.535 18.7677 22.6815 18.0411 22.6815C15.9845 22.6815 13.922 22.7166 11.8653 22.6698C10.213 22.6346 8.88289 21.908 7.99227 20.4842C7.62313 19.8866 7.44149 19.2303 7.43563 18.533C7.43563 16.2772 7.42391 14.0155 7.43563 11.7596C7.44735 10.2127 8.20321 9.07015 9.48641 8.26156C10.2481 7.78695 11.0919 7.57015 11.9884 7.56429C13.9923 7.56429 15.9903 7.55257 18.0001 7.56429C19.547 7.57601 20.8302 8.17952 21.7794 9.42171C22.3009 10.1073 22.5587 10.9041 22.5587 11.7713C22.5645 12.8787 22.5645 13.9979 22.5645 15.117ZM21.4395 15.1287C21.4395 14.0096 21.4395 12.8787 21.4395 11.7596C21.4395 11.1502 21.2579 10.5936 20.9005 10.1131C20.2032 9.16976 19.2364 8.70687 18.0821 8.69515C16.0489 8.67171 14.0157 8.68929 11.9825 8.68929C11.3497 8.68929 10.752 8.83577 10.2071 9.15218C9.15242 9.76156 8.56649 10.6522 8.57235 11.8944C8.57821 14.0799 8.57235 16.2772 8.57235 18.4686C8.57235 19.0838 8.75399 19.6463 9.11727 20.1326C9.81453 21.076 10.7813 21.533 11.9356 21.5448C13.9805 21.5682 16.0255 21.5506 18.0645 21.5506C18.5274 21.5506 18.9786 21.451 19.4122 21.2752C20.5606 20.8123 21.4805 19.7401 21.4454 18.3104C21.4161 17.2498 21.4395 16.1893 21.4395 15.1287Z" fill="white"/>
<path d="M15 18.3457C13.0254 18.3399 11.4492 16.7637 11.4551 14.8008C11.461 12.8848 13.0664 11.3262 15.0235 11.332C16.9805 11.3379 18.5684 12.9199 18.5625 14.8594C18.5625 16.7871 16.9688 18.3516 15 18.3457ZM15.0293 12.457C13.6875 12.457 12.6035 13.5176 12.5918 14.8301C12.5918 16.1367 13.6758 17.209 15 17.2149C16.3418 17.2149 17.4375 16.1543 17.4434 14.8477C17.4434 13.5352 16.3594 12.457 15.0293 12.457Z" fill="white"/>
<path d="M19.7286 11.0449C19.7286 11.4727 19.3887 11.8242 18.9727 11.8184C18.5626 11.8184 18.2286 11.4609 18.2345 11.0332C18.2345 10.6113 18.5743 10.2656 18.9845 10.2656C19.3946 10.2656 19.7286 10.6172 19.7286 11.0449Z" fill="white"/>
</svg>
