<svg width="30" height="30" viewBox="0 0 30 30" fill="none" xmlns="http://www.w3.org/2000/svg">
<circle cx="15" cy="15" r="15" fill="#A3885F"/>
<g clip-path="url(#clip0_67_1149)">
<path d="M22.9325 18.9558L22.8579 18.7309C22.681 18.2053 22.1014 17.6571 21.569 17.5127L19.5983 16.9744C19.0639 16.829 18.3015 17.0245 17.9105 17.4155L17.1973 18.1287C14.6053 17.4283 12.5728 15.3957 11.8733 12.8042L12.5866 12.0909C12.9776 11.6999 13.173 10.9386 13.0276 10.4042L12.4903 8.43251C12.3449 7.89907 11.7957 7.31948 11.2711 7.1446L11.0462 7.06896C10.5206 6.89408 9.77104 7.07094 9.38006 7.46191L8.31318 8.52977C8.12258 8.71936 8.00077 9.26164 8.00077 9.26362C7.96345 12.6509 9.29163 15.9143 11.6876 18.3104C14.0778 20.7005 17.329 22.0267 20.7064 21.9983C20.7241 21.9983 21.2821 21.8784 21.4727 21.6888L22.5396 20.6219C22.9305 20.2309 23.1074 19.4814 22.9325 18.9558Z" fill="white"/>
</g>
<defs>
<clipPath id="clip0_67_1149">
<rect width="15" height="15" fill="white" transform="translate(8 7)"/>
</clipPath>
</defs>
</svg>
