<svg width="40" height="40" viewBox="0 0 40 40" fill="none" xmlns="http://www.w3.org/2000/svg">
<g clip-path="url(#clip0_67_1001)">
<path d="M27.1333 19.1163C27.0604 19.0544 27.0016 18.9995 26.9385 18.9432C26.5243 18.4709 27.2699 18.4264 27.2699 18.4264H28.1907L36.3381 18.4282H36.6481C36.6481 18.4282 37.3581 18.4582 36.922 18.9193C36.8975 18.9395 36.8742 18.96 36.8484 18.9833C36.8074 19.0222 36.7596 19.0623 36.7038 19.1076C36.675 19.1322 36.6426 19.1585 36.612 19.1827C36.5593 19.2237 36.5139 19.2599 36.4759 19.292C35.4896 20.071 33.8318 21.0895 31.9419 21.054C29.8461 21.1263 28.0731 19.9182 27.1333 19.1163ZM26.5066 17.2664C25.7133 17.2664 25.8572 16.7242 25.9859 16.4458L26.0686 16.2878C26.0686 16.286 26.0723 16.2802 26.0723 16.2802L31.5492 5.85007C31.556 5.83874 31.9291 5.13116 32.307 5.85189L37.7687 16.2501C37.882 16.474 38.2281 17.2683 37.417 17.2683L26.5085 17.2665C26.5073 17.2664 26.5073 17.2664 26.5066 17.2664ZM13.8742 16.3159L13.8748 16.3177L13.9596 16.4797C14.0914 16.7505 14.2889 17.2682 13.8748 17.2682L2.12241 17.2663C1.73275 17.2663 1.80996 16.9086 1.93429 16.6207L2.12052 16.2669L2.12235 16.2651L7.72517 5.59674C7.72517 5.59674 8.01126 5.15442 8.24314 5.59674H8.24374L13.8742 16.3159ZM12.9859 19.1108C11.9428 19.8561 10.1022 20.9536 8.207 21.0265C8.16991 21.0307 8.13532 21.0399 8.09979 21.0437C8.09399 21.0418 8.0921 21.0381 8.08873 21.0333C8.00539 21.04 7.92455 21.0522 7.84181 21.0522C7.79893 21.0522 7.75881 21.043 7.71559 21.043C5.75516 21.0221 3.92702 19.7896 2.97691 19.0235H2.97752C2.97752 19.0235 2.22092 18.4252 2.97752 18.4252H3.94212L12.2381 18.427H12.9696C12.969 18.4277 13.7195 18.6121 12.9859 19.1108ZM39.8504 16.6866L39.8338 16.6493L39.8437 16.6416L39.7193 16.4045L33.082 3.76867C32.9019 3.43875 32.2709 2.47017 31.0573 2.47017H8.82604C7.47306 2.47017 6.79549 3.80326 6.78052 3.83448L0.262987 16.2446C0.262987 16.2446 0.261167 16.2501 0.259953 16.2501L0.213968 16.3386C0.104939 16.5549 -0.137999 17.1421 0.103051 17.7219C1.75898 20.4096 4.71126 22.2144 8.09972 22.2144C11.4131 22.2144 14.3026 20.4843 15.9779 17.8975C16.2339 17.3084 15.8774 16.5727 15.8774 16.5727L9.71075 4.82943L9.6504 4.71521C9.56767 4.52466 9.49356 4.16015 10.1549 4.16015H18.2397C18.4695 4.16784 19.1091 4.28111 19.1091 5.35138V33.1697C19.0938 33.4461 18.9896 34.0035 18.4162 34.3577L14.3686 36.8602C14.3686 36.8602 13.3072 37.5299 14.3686 37.5299H25.8542C26.6365 37.5299 25.8542 36.9864 25.8542 36.9864L21.6846 34.4342C21.6833 34.4342 21.6833 34.4324 21.6809 34.4324C20.9959 34.0127 20.8679 33.484 20.8489 33.2169V5.23224C20.8489 4.26486 21.5424 4.16501 21.7862 4.15954H29.691C29.8986 4.16319 30.5296 4.23183 30.1315 4.99145L23.9414 16.7751C23.9414 16.7751 23.749 17.2401 23.9659 17.7483C25.6243 20.4206 28.5643 22.2144 31.9423 22.2144C35.3265 22.2144 38.2782 20.4175 39.9335 17.7351C40.0985 17.3023 39.9122 16.8223 39.8504 16.6866Z" fill="black"/>
</g>
<defs>
<clipPath id="clip0_67_1001">
<rect width="40" height="40" fill="white"/>
</clipPath>
</defs>
</svg>
