<svg width="30" height="30" viewBox="0 0 30 30" fill="none" xmlns="http://www.w3.org/2000/svg">
<g clip-path="url(#clip0_67_1126)">
<mask id="mask0_67_1126" style="mask-type:luminance" maskUnits="userSpaceOnUse" x="0" y="0" width="30" height="30">
<path d="M0 15C0 23.2843 6.71569 30 15 30C23.2844 30 30.0001 23.2843 30.0001 15C30.0001 6.71563 23.2844 -6.10352e-05 15 -6.10352e-05C6.71569 -6.10352e-05 0 6.71563 0 15Z" fill="white"/>
</mask>
<g mask="url(#mask0_67_1126)">
<path d="M0 15C0 23.2843 6.71569 30 15 30C23.2844 30 30.0001 23.2843 30.0001 15C30.0001 6.71563 23.2844 -6.10352e-05 15 -6.10352e-05C6.71569 -6.10352e-05 0 6.71563 0 15Z" fill="url(#paint0_linear_67_1126)"/>
</g>
<mask id="mask1_67_1126" style="mask-type:luminance" maskUnits="userSpaceOnUse" x="-3" y="-3" width="35" height="35">
<path d="M-2.02148 -2.02162H31.9176V31.7793H-2.02148V-2.02162Z" fill="white"/>
</mask>
<g mask="url(#mask1_67_1126)">
<path d="M10.1538 16.0959L11.9335 21.0217C11.9335 21.0217 12.1559 21.4824 12.3943 21.4824C12.6326 21.4824 16.1761 17.796 16.1761 17.796L20.1168 10.1847L10.2174 14.8246L10.1538 16.0959Z" fill="#C8DAEA"/>
</g>
<mask id="mask2_67_1126" style="mask-type:luminance" maskUnits="userSpaceOnUse" x="-3" y="-3" width="35" height="35">
<path d="M-2.02148 -2.02162H31.9176V31.7793H-2.02148V-2.02162Z" fill="white"/>
</mask>
<g mask="url(#mask2_67_1126)">
<path d="M12.5132 17.3593L12.1715 20.99C12.1715 20.99 12.0285 22.1023 13.1408 20.99C14.2531 19.8777 15.3177 19.0197 15.3177 19.0197" fill="#A9C6D8"/>
</g>
<mask id="mask3_67_1126" style="mask-type:luminance" maskUnits="userSpaceOnUse" x="-3" y="-3" width="35" height="35">
<path d="M-2.02148 -2.02162H31.9176V31.7793H-2.02148V-2.02162Z" fill="white"/>
</mask>
<g mask="url(#mask3_67_1126)">
<path d="M10.1857 16.2721L6.52528 15.0793C6.52528 15.0793 6.08838 14.902 6.22871 14.4994C6.2577 14.4164 6.31604 14.3459 6.49083 14.224C7.30211 13.6587 21.5041 8.55394 21.5041 8.55394C21.5041 8.55394 21.9051 8.41894 22.1422 8.50869C22.2505 8.54975 22.3197 8.59614 22.3779 8.76547C22.3991 8.82712 22.4113 8.95818 22.4097 9.0886C22.4084 9.18267 22.397 9.26975 22.3886 9.4064C22.3021 10.8022 19.714 21.218 19.714 21.218C19.714 21.218 19.5592 21.8276 19.0043 21.8483C18.8019 21.8559 18.5563 21.8149 18.2627 21.5623C17.1739 20.6257 13.4103 18.0964 12.5788 17.5402C12.5318 17.509 12.5186 17.4682 12.5105 17.4284C12.4989 17.3699 12.5614 17.2969 12.5614 17.2969C12.5614 17.2969 19.1146 11.4717 19.289 10.8605C19.3025 10.8131 19.2518 10.7897 19.183 10.8102C18.7478 10.9703 11.2025 15.7348 10.3699 16.261C10.3212 16.2918 10.1847 16.272 10.1847 16.272" fill="white"/>
</g>
</g>
<defs>
<linearGradient id="paint0_linear_67_1126" x1="15" y1="29.9999" x2="15" y2="-0.000188154" gradientUnits="userSpaceOnUse">
<stop stop-color="#1D93D2"/>
<stop offset="1" stop-color="#38B0E3"/>
</linearGradient>
<clipPath id="clip0_67_1126">
<rect width="30" height="30" fill="white"/>
</clipPath>
</defs>
</svg>
