<svg width="20" height="20" viewBox="0 0 20 20" fill="none" xmlns="http://www.w3.org/2000/svg">
<g clip-path="url(#clip0_67_944)">
<path d="M10 0C11.5338 0.000443887 13.0469 0.353692 14.4224 1.03242C15.7978 1.71115 16.9986 2.69717 17.9321 3.91421C18.8655 5.13125 19.5065 6.54669 19.8054 8.05106C20.1043 9.55542 20.0532 11.1084 19.656 12.5898C19.2587 14.0713 18.5261 15.4415 17.5146 16.5945C16.5032 17.7475 15.24 18.6524 13.823 19.2392C12.4059 19.826 10.8728 20.079 9.34231 19.9785C7.81182 19.8781 6.32495 19.427 4.9967 18.66L1.0967 19.9567C0.950005 20.0053 0.792667 20.0122 0.642271 19.9766C0.491875 19.941 0.354347 19.8643 0.245059 19.755C0.135771 19.6457 0.0590298 19.5082 0.0234118 19.3578C-0.0122061 19.2074 -0.00529695 19.05 0.0433671 18.9033L1.34337 15.005C0.464591 13.4849 0.00152452 11.7603 0.000733437 10.0045C-5.76443e-05 8.24871 0.461454 6.52365 1.33886 5.0028C2.21627 3.48195 3.47864 2.21893 4.99903 1.34073C6.51942 0.462532 8.24424 0.000122674 10 0ZM6.55337 5.005C6.42624 5.00939 6.30161 5.04149 6.18818 5.09907C6.07476 5.15664 5.97528 5.2383 5.8967 5.33833C5.6717 5.60167 5.0367 6.24333 5.0367 7.54667C5.0367 8.85167 5.91837 10.1133 6.0417 10.29C6.16337 10.4633 7.7767 13.14 10.245 14.29C10.7034 14.5033 11.17 14.69 11.645 14.8483C12.235 15.0483 12.7734 15.0217 13.1984 14.955C13.6717 14.88 14.6534 14.315 14.8584 13.6933C15.0617 13.0767 15.0617 12.545 15 12.435C14.94 12.3233 14.775 12.2567 14.5267 12.1217C13.9737 11.8216 13.4135 11.5348 12.8467 11.2617C12.6217 11.1717 12.4567 11.1283 12.2934 11.395C12.1284 11.66 11.66 12.2583 11.515 12.435C11.3734 12.6067 11.2284 12.6317 10.9817 12.5C10.735 12.3683 9.94337 12.0867 9.00337 11.1833C8.46094 10.6408 8.00054 10.0221 7.6367 9.34667C7.49003 9.08 7.62003 8.93833 7.7417 8.805C7.85337 8.68833 7.98837 8.49667 8.1117 8.34C8.23337 8.19 8.2767 8.07833 8.35837 7.9C8.44003 7.72333 8.39837 7.56667 8.3367 7.43667C8.27503 7.30333 7.78337 5.99667 7.5767 5.465C7.3767 4.94833 7.17503 5.02167 7.02337 5.01167C6.8817 5.005 6.71837 5.005 6.55337 5.005Z" fill="#52C12C"/>
</g>
<defs>
<clipPath id="clip0_67_944">
<rect width="20" height="20" fill="white"/>
</clipPath>
</defs>
</svg>
