<svg width="30" height="30" viewBox="0 0 30 30" fill="none" xmlns="http://www.w3.org/2000/svg">
<g clip-path="url(#clip0_67_1121)">
<path d="M15 30C23.2843 30 30 23.2843 30 15C30 6.71575 23.2843 0 15 0C6.71575 0 0 6.71575 0 15C0 23.2843 6.71575 30 15 30Z" fill="#25D366"/>
<path fill-rule="evenodd" clip-rule="evenodd" d="M15.4944 23.3453H15.4908C13.9979 23.3448 12.5311 22.9703 11.2283 22.2596L6.5 23.5L7.76538 18.878C6.98481 17.5253 6.57413 15.9909 6.57475 14.4189C6.57675 9.50107 10.578 5.5 15.4943 5.5C17.8804 5.50103 20.1199 6.42994 21.8039 8.11588C23.4879 9.80176 24.4148 12.0427 24.4138 14.4259C24.4119 19.3427 20.4122 23.3433 15.4944 23.3453ZM11.4474 20.6449L11.7181 20.8056C12.8564 21.4811 14.1611 21.8384 15.4914 21.8389H15.4944C19.5805 21.8389 22.9062 18.5132 22.9078 14.4254C22.9086 12.4445 22.1383 10.5819 20.7386 9.18063C19.3389 7.77932 17.4775 7.00719 15.4973 7.00651C11.4081 7.00651 8.08238 10.3319 8.08075 14.4194C8.08019 15.8203 8.47213 17.1844 9.21419 18.3648L9.3905 18.6453L8.64156 21.3809L11.4474 20.6449ZM19.6828 16.3463C19.8382 16.4214 19.9432 16.4721 19.988 16.5469C20.0437 16.6399 20.0437 17.0861 19.8581 17.6068C19.6723 18.1274 18.7819 18.6025 18.3537 18.6664C17.9698 18.7239 17.4838 18.7478 16.9499 18.5781C16.6263 18.4754 16.2112 18.3383 15.6794 18.1087C13.5901 17.2065 12.1781 15.1815 11.9113 14.7988C11.8926 14.7719 11.8795 14.7532 11.8722 14.7434L11.8704 14.7411C11.7525 14.5837 10.9622 13.5293 10.9622 12.438C10.9622 11.4114 11.4664 10.8733 11.6986 10.6256C11.7145 10.6087 11.7291 10.5931 11.7422 10.5788C11.9465 10.3556 12.1879 10.2998 12.3365 10.2998C12.4851 10.2998 12.6338 10.3012 12.7637 10.3078C12.7797 10.3086 12.7964 10.3084 12.8136 10.3083C12.9434 10.3076 13.1054 10.3066 13.2651 10.6903C13.3266 10.8379 13.4165 11.0569 13.5113 11.2878C13.7031 11.7546 13.915 12.2705 13.9523 12.3451C14.008 12.4567 14.0451 12.5868 13.9708 12.7356C13.9597 12.7579 13.9494 12.7789 13.9395 12.7991C13.8837 12.913 13.8427 12.9968 13.7479 13.1074C13.7108 13.1508 13.6723 13.1977 13.6338 13.2446C13.5571 13.3379 13.4804 13.4313 13.4137 13.4978C13.3021 13.6089 13.1859 13.7295 13.3159 13.9526C13.4459 14.1758 13.8933 14.9056 14.5558 15.4966C15.268 16.1318 15.887 16.4003 16.2008 16.5364C16.262 16.563 16.3116 16.5845 16.3481 16.6028C16.5708 16.7143 16.7008 16.6956 16.8309 16.5469C16.9609 16.3982 17.388 15.8961 17.5365 15.6731C17.6851 15.4501 17.8337 15.4872 18.0379 15.5615C18.2423 15.636 19.338 16.1751 19.5609 16.2866C19.6044 16.3084 19.6451 16.3281 19.6828 16.3463Z" fill="#FDFDFD"/>
</g>
<defs>
<clipPath id="clip0_67_1121">
<rect width="30" height="30" fill="white"/>
</clipPath>
</defs>
</svg>
